<?xml version="1.0" encoding="UTF-8" standalone="no"?>
<!DOCTYPE svg PUBLIC "-//W3C//DTD SVG 20010904//EN"
              "https://www.w3.org/TR/2001/REC-SVG-20010904/DTD/svg10.dtd">

<svg xmlns="https://www.w3.org/2000/svg"
     width="5in" height="4.33333in"
     viewBox="0 0 1500 1300">
  <path id="Kugellager"
        d="M 713.00,83.14
           C 713.00,83.14 688.00,85.17 688.00,85.17
             688.00,85.17 657.00,89.27 657.00,89.27
             626.30,94.01 590.35,103.16 561.00,113.34
             412.68,164.82 288.35,278.59 225.87,423.00
             152.77,591.95 165.47,788.73 261.81,946.00
             292.39,995.93 330.82,1041.30 375.00,1079.71
             427.82,1125.64 489.35,1160.80 555.00,1184.69
             585.98,1195.97 617.59,1203.77 650.00,1209.61
             650.00,1209.61 702.00,1216.09 702.00,1216.09
             702.00,1216.09 712.00,1217.04 712.00,1217.04
             712.00,1217.04 725.00,1217.04 725.00,1217.04
             725.00,1217.04 737.00,1218.00 737.00,1218.00
             737.00,1218.00 757.00,1218.00 757.00,1218.00
             757.00,1218.00 772.00,1217.00 772.00,1217.00
             827.25,1216.36 890.99,1201.82 943.00,1183.30
             974.10,1172.23 1004.55,1157.11 1033.00,1140.45
             1163.16,1064.22 1253.76,944.75 1294.57,800.00
             1302.76,770.96 1307.96,739.97 1311.16,710.00
             1311.16,710.00 1313.09,687.00 1313.09,687.00
             1313.09,687.00 1314.00,675.00 1314.00,675.00
             1314.00,675.00 1314.00,623.00 1314.00,623.00
             1314.00,623.00 1312.96,613.00 1312.96,613.00
             1312.96,613.00 1312.96,604.00 1312.96,604.00
             1309.13,565.13 1302.94,529.54 1292.00,492.00
             1265.68,401.69 1217.74,319.39 1151.99,252.00
             1151.99,252.00 1137.00,237.91 1137.00,237.91
             1137.00,237.91 1094.00,200.67 1094.00,200.67
             1026.17,147.54 945.17,111.42 861.00,94.00
             838.85,89.41 816.49,86.31 794.00,84.04
             794.00,84.04 785.00,84.04 785.00,84.04
             785.00,84.04 773.00,83.14 773.00,83.14
             773.00,83.14 751.00,83.14 751.00,83.14
             751.00,83.14 713.00,83.14 713.00,83.14 Z
           M 675.00,181.00
           C 671.78,189.29 666.73,191.54 660.08,211.00
             659.04,214.02 657.25,224.32 655.43,225.86
             654.45,226.69 647.69,228.96 646.00,229.57
             646.00,229.57 618.00,237.72 618.00,237.72
             595.72,244.43 573.79,253.85 553.00,264.25
             553.00,264.25 525.00,279.24 525.00,279.24
             522.68,280.39 515.23,283.95 513.00,284.07
             509.81,284.24 502.32,278.97 499.00,277.26
             483.23,269.12 482.81,271.72 470.00,267.00
             472.72,261.77 478.25,259.23 483.00,255.98
             483.00,255.98 518.00,234.63 518.00,234.63
             558.72,212.63 598.77,196.78 644.00,186.66
             644.00,186.66 675.00,181.00 675.00,181.00 Z
           M 822.00,181.00
           C 822.00,181.00 836.00,183.45 836.00,183.45
             836.00,183.45 871.00,191.28 871.00,191.28
             909.67,201.51 947.24,216.96 982.00,236.72
             982.00,236.72 1015.00,257.00 1015.00,257.00
             1020.24,260.51 1027.07,264.32 1030.00,270.00
             1019.91,271.34 1010.25,273.76 1001.00,278.12
             997.11,279.95 987.45,286.42 984.00,286.34
             981.34,286.28 972.93,281.76 970.00,280.36
             970.00,280.36 953.00,270.86 953.00,270.86
             953.00,270.86 933.00,260.60 933.00,260.60
             916.00,252.15 890.25,242.11 872.00,236.86
             872.00,236.86 850.00,230.33 850.00,230.33
             847.53,229.50 842.59,228.02 840.85,226.19
             839.13,224.36 838.25,219.50 837.63,217.00
             835.95,210.31 834.66,206.35 831.83,200.00
             829.69,195.20 821.93,184.97 822.00,181.00 Z
           M 743.00,216.33
           C 747.53,215.87 753.84,216.72 757.48,219.72
             760.07,221.85 762.11,225.80 762.95,229.00
             765.63,239.34 759.20,247.20 749.00,249.06
             733.20,251.94 721.65,235.33 730.85,223.18
             733.77,219.33 738.45,217.42 743.00,216.33 Z
           M 681.00,304.00
           C 655.77,307.56 614.88,321.93 592.00,333.37
             592.00,333.37 566.00,347.60 566.00,347.60
             560.48,350.93 555.19,355.05 549.00,357.00
             549.00,345.12 547.93,339.23 543.77,328.00
             542.12,323.53 541.14,321.88 540.00,317.00
             540.00,317.00 572.00,299.60 572.00,299.60
             589.98,290.61 608.79,282.99 628.00,277.02
             628.00,277.02 651.00,270.45 651.00,270.45
             652.88,270.06 657.94,269.02 659.61,269.66
             662.19,270.65 664.02,276.50 665.27,279.00
             665.27,279.00 681.00,304.00 681.00,304.00 Z
           M 947.00,360.00
           C 947.00,360.00 907.00,337.10 907.00,337.10
             882.76,324.46 841.96,308.64 815.00,305.00
             816.43,298.27 819.96,296.44 823.79,291.00
             828.31,284.59 832.42,276.40 835.00,269.00
             863.42,274.71 901.49,288.83 927.00,302.54
             927.00,302.54 947.00,313.80 947.00,313.80
             949.41,315.25 953.72,317.50 954.87,320.10
             956.19,323.06 952.76,329.77 951.67,333.00
             948.31,342.99 947.00,349.45 947.00,360.00 Z
           M 1031.00,370.00
           C 1027.13,361.90 1024.72,362.85 1025.02,352.00
             1025.42,337.30 1042.93,333.33 1052.87,341.71
             1060.62,348.23 1062.91,364.94 1049.00,370.65
             1041.96,373.54 1037.74,371.20 1031.00,370.00 Z
           M 448.00,339.57
           C 451.28,338.96 454.83,338.66 458.00,339.57
             474.67,345.91 469.24,373.92 448.00,372.96
             429.16,372.10 427.89,344.16 448.00,339.57 Z
           M 366.00,371.00
           C 366.23,381.62 370.50,391.59 375.11,401.00
             376.97,404.79 381.75,411.21 381.66,415.00
             381.58,418.25 376.91,426.79 375.22,430.00
             375.22,430.00 356.86,464.00 356.86,464.00
             356.86,464.00 338.69,508.00 338.69,508.00
             338.69,508.00 332.67,527.00 332.67,527.00
             332.67,527.00 325.27,550.00 325.27,550.00
             324.61,551.63 323.09,556.19 322.10,557.27
             320.18,559.34 311.23,560.48 308.00,561.44
             293.90,565.61 286.41,571.96 280.00,574.00
             280.22,563.79 286.93,536.76 289.85,526.00
             300.34,487.27 314.93,450.89 334.85,416.00
             334.85,416.00 354.58,384.00 354.58,384.00
             357.90,379.35 360.82,373.69 366.00,371.00 Z
           M 1132.00,371.00
           C 1135.98,374.70 1138.50,379.55 1141.59,384.00
             1141.59,384.00 1163.09,419.00 1163.09,419.00
             1183.78,455.92 1199.53,495.78 1209.23,537.00
             1212.00,548.77 1216.46,567.28 1217.00,579.00
             1210.42,576.82 1201.83,568.84 1186.00,563.67
             1182.38,562.49 1172.87,560.96 1170.84,558.57
             1168.93,556.33 1165.41,544.37 1164.53,541.00
             1164.53,541.00 1155.49,511.00 1155.49,511.00
             1150.08,494.77 1140.69,472.18 1132.89,457.00
             1128.95,449.32 1115.91,426.13 1114.66,419.00
             1113.84,414.29 1119.54,407.39 1121.73,403.00
             1129.61,387.25 1129.22,377.49 1132.00,371.00 Z
           M 740.00,399.28
           C 750.79,398.28 753.03,399.95 762.00,400.00
             780.88,400.10 803.97,405.17 822.00,410.81
             913.40,439.37 981.48,518.99 994.28,614.00
             994.28,614.00 997.00,641.00 997.00,641.00
             997.35,670.94 994.36,698.30 985.26,727.00
             961.55,801.69 902.20,862.56 828.00,887.92
             795.52,899.02 767.95,901.39 734.00,901.00
             734.00,901.00 724.00,900.09 724.00,900.09
             703.65,898.67 686.44,894.71 667.00,888.72
             645.60,882.12 623.54,870.82 605.00,858.33
             544.85,817.80 504.56,752.20 496.84,680.00
             496.84,680.00 495.00,662.00 495.00,662.00
             495.00,662.00 495.00,641.00 495.00,641.00
             495.00,641.00 496.84,620.00 496.84,620.00
             500.40,586.69 509.76,559.63 525.11,530.00
             525.11,530.00 536.12,512.00 536.12,512.00
             570.42,458.38 625.58,421.25 687.00,405.89
             696.71,403.47 718.17,400.05 728.00,400.00
             733.67,399.97 734.22,400.11 740.00,399.28 Z
           M 454.00,452.00
           C 454.00,452.00 432.26,490.00 432.26,490.00
             419.83,514.09 403.60,557.33 400.00,584.00
             400.00,584.00 376.00,568.31 376.00,568.31
             373.59,567.01 367.65,564.89 366.58,562.59
             365.46,560.20 366.76,555.48 367.37,553.00
             367.37,553.00 373.36,532.00 373.36,532.00
             380.31,507.24 392.93,480.51 405.31,458.00
             405.31,458.00 415.00,442.00 415.00,442.00
             415.00,442.00 433.00,448.12 433.00,448.12
             433.00,448.12 444.00,450.70 444.00,450.70
             444.00,450.70 454.00,452.00 454.00,452.00 Z
           M 1080.00,445.00
           C 1095.48,468.70 1111.57,504.84 1119.97,532.00
             1119.97,532.00 1125.66,554.00 1125.66,554.00
             1126.20,556.55 1127.56,561.15 1126.42,563.59
             1125.34,565.89 1118.47,568.50 1116.00,569.76
             1104.27,575.71 1097.71,583.30 1092.00,586.00
             1091.28,577.13 1087.00,561.82 1084.42,553.00
             1077.71,530.03 1068.88,508.32 1058.04,487.00
             1058.04,487.00 1040.00,455.00 1040.00,455.00
             1040.00,455.00 1062.00,451.52 1062.00,451.52
             1062.00,451.52 1080.00,445.00 1080.00,445.00 Z
           M 1159.00,630.43
           C 1166.56,629.28 1173.86,630.38 1178.28,637.44
             1181.74,642.97 1182.47,661.15 1168.00,665.07
             1157.77,667.84 1148.36,658.88 1147.22,649.00
             1146.31,641.07 1151.86,633.24 1159.00,630.43 Z
           M 325.00,637.39
           C 330.01,636.71 334.45,636.80 338.70,639.97
             350.57,648.83 347.87,668.96 332.00,672.16
             312.65,676.07 302.60,644.55 325.00,637.39 Z
           M 400.00,716.00
           C 403.58,742.51 418.83,784.10 431.11,808.00
             431.11,808.00 445.00,833.00 445.00,833.00
             448.22,838.28 452.12,843.05 454.00,849.00
             445.17,849.03 436.28,850.73 428.00,853.81
             425.05,854.91 418.17,858.26 415.32,856.88
             413.12,855.80 410.50,851.14 409.20,849.00
             409.20,849.00 397.75,828.00 397.75,828.00
             387.87,808.24 379.48,788.13 372.98,767.00
             369.91,757.04 366.48,746.46 366.00,736.00
             381.68,731.53 391.89,719.46 400.00,716.00 Z
           M 1093.00,717.00
           C 1102.50,723.78 1104.07,727.03 1116.00,733.36
             1118.58,734.73 1125.32,737.06 1126.42,739.41
             1127.61,741.96 1126.13,746.42 1125.42,749.00
             1125.42,749.00 1119.97,768.00 1119.97,768.00
             1112.56,791.84 1102.76,815.17 1090.66,837.00
             1088.12,841.60 1081.03,855.84 1076.70,857.87
             1073.91,859.19 1067.11,855.69 1064.00,854.67
             1056.57,852.25 1044.79,850.07 1037.00,850.00
             1037.00,850.00 1051.57,825.00 1051.57,825.00
             1059.50,811.15 1066.62,796.82 1072.55,782.00
             1072.55,782.00 1086.58,740.00 1086.58,740.00
             1088.25,733.99 1090.22,721.75 1093.00,717.00 Z
           M 1217.00,724.00
           C 1211.35,766.76 1196.65,811.88 1178.69,851.00
             1178.69,851.00 1163.26,881.00 1163.26,881.00
             1156.55,893.79 1148.62,906.07 1140.50,918.00
             1137.01,923.13 1133.51,929.97 1128.00,933.00
             1127.17,922.73 1123.59,911.16 1118.89,902.00
             1117.05,898.41 1110.58,889.18 1110.69,886.00
             1110.77,883.52 1115.54,874.62 1116.95,872.00
             1116.95,872.00 1133.89,841.00 1133.89,841.00
             1146.62,814.84 1153.56,795.63 1162.02,768.00
             1162.02,768.00 1170.00,743.00 1170.00,743.00
             1179.01,742.24 1193.08,737.66 1201.00,733.33
             1206.43,730.37 1211.10,725.96 1217.00,724.00 Z
           M 281.00,726.00
           C 289.83,731.38 297.10,735.26 307.00,738.48
             310.22,739.53 320.41,741.18 322.16,742.85
             323.92,744.53 326.49,752.41 327.28,755.00
             327.28,755.00 335.34,782.00 335.34,782.00
             341.88,802.44 353.15,830.22 363.31,849.00
             363.31,849.00 376.14,872.00 376.14,872.00
             377.81,875.00 381.53,881.75 381.68,885.00
             381.87,889.06 376.32,896.85 374.25,901.00
             369.89,909.72 366.45,919.19 366.00,929.00
             361.10,927.35 358.61,922.11 355.84,918.00
             355.84,918.00 336.86,888.00 336.86,888.00
             314.54,849.74 300.71,813.40 288.71,771.00
             288.71,771.00 282.20,741.00 282.20,741.00
             281.27,736.19 279.18,730.73 281.00,726.00 Z
           M 1043.00,927.32
           C 1046.99,927.25 1051.49,927.92 1054.62,930.65
             1065.23,939.87 1059.06,959.51 1045.00,960.90
             1041.35,961.26 1036.20,961.13 1033.04,959.15
             1024.96,954.09 1023.76,941.32 1029.43,934.04
             1033.32,929.04 1037.11,928.15 1043.00,927.32 Z
           M 452.00,932.39
           C 455.92,931.95 464.13,932.81 467.12,935.56
             476.48,944.14 474.90,963.25 461.00,966.47
             454.54,967.96 443.92,963.66 440.80,957.74
             439.27,954.85 439.00,951.21 439.01,948.00
             439.01,944.98 439.08,942.73 440.65,940.04
             443.17,935.72 447.41,933.75 452.00,932.39 Z
           M 944.00,943.00
           C 944.00,951.74 945.07,960.63 947.75,969.00
             948.79,972.25 952.55,979.61 951.38,982.62
             950.51,984.89 946.08,987.16 944.00,988.40
             944.00,988.40 924.00,999.25 924.00,999.25
             895.54,1013.45 865.37,1025.29 834.00,1031.00
             830.38,1015.76 817.07,1004.67 813.00,996.00
             840.05,990.91 871.36,980.99 896.00,968.75
             896.00,968.75 924.00,953.94 924.00,953.94
             929.69,950.47 937.77,944.52 944.00,943.00 Z
           M 682.00,997.00
           C 682.00,997.00 672.36,1011.00 672.36,1011.00
             672.36,1011.00 661.00,1032.00 661.00,1032.00
             632.47,1026.63 594.93,1012.39 569.00,999.24
             569.00,999.24 549.00,988.19 549.00,988.19
             546.67,986.76 542.58,984.52 541.69,981.82
             540.65,978.63 544.18,971.32 545.26,968.00
             548.24,958.77 549.00,953.63 549.00,944.00
             556.37,945.75 564.44,951.94 571.00,955.94
             571.00,955.94 600.00,970.70 600.00,970.70
             616.53,978.15 633.55,984.60 651.00,989.57
             651.00,989.57 682.00,997.00 682.00,997.00 Z
           M 673.00,1119.00
           C 627.56,1112.97 567.26,1092.47 527.00,1070.69
             527.00,1070.69 492.00,1050.31 492.00,1050.31
             492.00,1050.31 469.00,1035.00 469.00,1035.00
             469.00,1035.00 469.00,1033.00 469.00,1033.00
             480.22,1030.03 484.42,1030.37 496.00,1024.74
             499.93,1022.83 509.58,1016.31 513.00,1016.35
             515.92,1016.39 526.77,1022.12 530.00,1023.76
             530.00,1023.76 552.00,1035.74 552.00,1035.74
             552.00,1035.74 569.00,1043.74 569.00,1043.74
             585.39,1051.56 607.50,1059.46 625.00,1064.58
             625.00,1064.58 646.00,1071.00 646.00,1071.00
             648.21,1071.77 653.86,1073.63 655.43,1075.07
             657.41,1076.89 658.49,1085.82 659.52,1089.00
             659.52,1089.00 673.00,1119.00 673.00,1119.00 Z
           M 1025.00,1034.00
           C 1022.12,1039.58 1016.13,1042.54 1011.00,1045.86
             1011.00,1045.86 979.00,1065.28 979.00,1065.28
             934.87,1090.36 873.40,1112.31 823.00,1119.00
             824.61,1113.00 832.10,1103.86 836.28,1090.00
             837.45,1086.13 838.96,1076.12 841.51,1073.70
             844.64,1070.73 863.78,1065.80 869.00,1064.29
             886.89,1059.13 906.19,1052.22 923.00,1044.22
             923.00,1044.22 958.00,1026.58 958.00,1026.58
             961.08,1024.83 976.35,1017.10 979.00,1016.93
             982.05,1016.74 991.65,1023.06 995.00,1024.83
             1003.25,1029.21 1015.64,1033.79 1025.00,1034.00 Z
           M 748.00,1051.33
           C 755.24,1050.52 761.29,1051.22 766.20,1057.30
             773.56,1066.42 768.35,1081.04 757.00,1083.52
             752.64,1084.47 745.88,1084.36 742.01,1081.99
             730.13,1074.73 731.04,1055.54 748.00,1051.33 Z" />
</svg>
