<?xml version="1.0" encoding="UTF-8" standalone="no"?>
<!DOCTYPE svg PUBLIC "-//W3C//DTD SVG 20010904//EN"
              "https://www.w3.org/TR/2001/REC-SVG-20010904/DTD/svg10.dtd">

<svg xmlns="https://www.w3.org/2000/svg"
     width="5in" height="4.33333in"
     viewBox="0 0 1500 1300">
  <path id="svgHaruda"
        fill="none" stroke="black" stroke-width="1"
        d="M 1259.00,668.00
           C 1267.47,667.81 1277.50,664.76 1286.00,663.00
             1289.22,662.34 1295.03,661.69 1297.35,659.44
             1299.58,657.30 1302.53,648.38 1304.01,645.00
             1304.01,645.00 1319.01,608.00 1319.01,608.00
             1320.83,603.57 1324.31,592.58 1328.21,590.43
             1328.21,590.43 1357.00,583.80 1357.00,583.80
             1357.00,583.80 1412.00,572.00 1412.00,572.00
             1412.00,572.00 1431.00,567.88 1431.00,567.88
             1433.19,567.38 1437.55,566.11 1439.58,567.19
             1442.12,568.54 1444.10,576.19 1444.98,579.00
             1444.98,579.00 1454.88,611.00 1454.88,611.00
             1455.93,614.42 1457.82,623.04 1461.22,624.36
             1464.10,625.48 1477.23,621.78 1481.00,621.00
             1483.92,620.40 1494.59,618.59 1496.40,617.02
             1499.68,614.18 1496.35,606.36 1495.14,603.00
             1495.14,603.00 1481.72,564.00 1481.72,564.00
             1481.72,564.00 1469.35,528.00 1469.35,528.00
             1469.35,528.00 1434.92,426.00 1434.92,426.00
             1434.92,426.00 1423.42,393.00 1423.42,393.00
             1422.51,389.91 1420.62,381.96 1417.59,380.59
             1414.92,379.39 1403.38,382.59 1400.00,383.35
             1395.54,384.36 1381.20,386.74 1378.21,388.85
             1374.83,391.25 1372.94,397.22 1371.40,401.00
             1371.40,401.00 1360.20,427.00 1360.20,427.00
             1360.20,427.00 1333.87,488.00 1333.87,488.00
             1333.87,488.00 1290.13,591.00 1290.13,591.00
             1290.13,591.00 1268.58,641.00 1268.58,641.00
             1265.12,649.12 1259.43,659.30 1259.00,668.00 Z
           M 1395.00,425.00
           C 1395.00,425.00 1420.74,504.00 1420.74,504.00
             1420.74,504.00 1431.00,535.00 1431.00,535.00
             1431.00,535.00 1379.00,546.42 1379.00,546.42
             1379.00,546.42 1341.00,554.00 1341.00,554.00
             1341.00,554.00 1376.55,468.00 1376.55,468.00
             1376.55,468.00 1395.00,425.00 1395.00,425.00 Z
           M 1022.00,719.00
           C 1029.23,718.84 1035.01,717.01 1042.00,715.60
             1042.00,715.60 1080.00,707.42 1080.00,707.42
             1080.00,707.42 1102.00,701.83 1102.00,701.83
             1102.00,701.83 1119.00,697.91 1119.00,697.91
             1143.28,691.23 1168.37,680.47 1189.00,665.96
             1224.38,641.10 1244.48,603.27 1250.70,561.00
             1250.70,561.00 1252.09,543.00 1252.09,543.00
             1252.09,543.00 1253.49,523.00 1253.49,523.00
             1252.12,501.51 1250.13,481.88 1236.52,464.01
             1214.09,434.55 1168.72,436.88 1136.00,441.29
             1136.00,441.29 1120.00,444.56 1120.00,444.56
             1120.00,444.56 1112.00,445.44 1112.00,445.44
             1112.00,445.44 1089.00,450.21 1089.00,450.21
             1089.00,450.21 1055.00,457.60 1055.00,457.60
             1051.56,458.29 1043.98,459.27 1042.02,462.30
             1040.41,464.80 1040.18,478.31 1039.83,482.00
             1039.83,482.00 1035.91,534.00 1035.91,534.00
             1035.91,534.00 1030.09,607.00 1030.09,607.00
             1030.09,607.00 1026.96,646.00 1026.96,646.00
             1026.96,646.00 1026.96,654.00 1026.96,654.00
             1026.96,654.00 1022.00,719.00 1022.00,719.00 Z
           M 1062.00,679.00
           C 1062.00,679.00 1062.91,668.00 1062.91,668.00
             1062.91,668.00 1064.91,641.00 1064.91,641.00
             1064.91,641.00 1067.91,602.00 1067.91,602.00
             1067.91,602.00 1069.17,581.00 1069.17,581.00
             1069.17,581.00 1074.83,510.00 1074.83,510.00
             1074.83,510.00 1075.99,494.00 1075.99,494.00
             1076.07,491.27 1075.75,487.73 1077.74,485.56
             1079.88,483.21 1095.07,480.60 1099.00,479.80
             1123.20,474.88 1132.42,470.96 1158.00,471.00
             1165.03,471.01 1169.24,471.67 1176.00,473.58
             1184.83,476.07 1193.16,480.18 1199.24,487.29
             1205.88,495.06 1209.42,506.12 1211.26,516.00
             1214.84,535.23 1212.83,561.14 1207.88,580.00
             1205.94,587.40 1203.82,594.90 1200.91,602.00
             1186.70,636.64 1154.56,656.72 1120.00,667.03
             1120.00,667.03 1099.00,671.65 1099.00,671.65
             1099.00,671.65 1062.00,679.00 1062.00,679.00 Z
           M 978.00,475.00
           C 970.38,475.17 958.86,478.37 951.00,480.00
             947.63,480.70 943.13,481.01 941.17,484.23
             939.64,486.74 940.03,493.58 939.58,497.00
             939.58,497.00 936.83,535.00 936.83,535.00
             936.83,535.00 932.91,587.00 932.91,587.00
             932.91,587.00 931.09,607.00 931.09,607.00
             931.09,607.00 928.98,632.00 928.98,632.00
             928.98,632.00 928.98,639.00 928.98,639.00
             928.98,639.00 927.00,646.00 927.00,646.00
             927.00,646.00 927.00,654.00 927.00,654.00
             924.64,669.51 917.21,691.19 906.82,703.00
             892.09,719.74 867.77,728.30 846.00,730.30
             835.96,731.23 823.88,729.78 816.04,722.79
             805.37,713.29 803.02,695.56 803.00,682.00
             803.00,682.00 803.91,669.00 803.91,669.00
             803.91,669.00 806.83,630.00 806.83,630.00
             806.83,630.00 811.09,570.00 811.09,570.00
             811.09,570.00 815.13,516.00 815.13,516.00
             815.19,514.13 815.61,511.59 813.53,510.61
             811.86,509.82 807.82,510.83 806.00,511.21
             806.00,511.21 787.00,515.35 787.00,515.35
             783.41,516.16 778.69,516.21 777.23,520.14
             775.68,524.31 776.25,530.61 775.83,535.00
             775.83,535.00 772.83,574.00 772.83,574.00
             772.83,574.00 766.91,653.00 766.91,653.00
             766.91,653.00 764.02,690.99 764.02,690.99
             764.38,708.65 766.14,726.95 776.80,741.83
             786.81,755.82 804.18,762.84 821.00,763.00
             821.00,763.00 834.00,763.00 834.00,763.00
             843.40,762.99 855.88,760.13 865.00,757.69
             865.00,757.69 875.00,755.41 875.00,755.41
             900.20,747.47 920.58,735.31 937.80,715.00
             966.95,680.62 966.21,638.14 969.09,596.00
             969.09,596.00 975.09,517.00 975.09,517.00
             975.09,517.00 978.00,475.00 978.00,475.00 Z
           M 515.00,828.00
           C 515.00,828.00 541.00,823.58 541.00,823.58
             541.00,823.58 551.10,820.27 551.10,820.27
             551.10,820.27 553.00,811.00 553.00,811.00
             553.00,811.00 554.28,793.00 554.28,793.00
             554.28,793.00 557.09,755.00 557.09,755.00
             557.09,755.00 560.00,713.00 560.00,713.00
             560.00,713.00 602.00,704.20 602.00,704.20
             613.78,701.86 626.43,701.82 635.42,711.13
             649.25,725.44 660.18,754.57 669.24,773.00
             671.96,778.52 675.82,792.92 683.02,792.77
             683.02,792.77 709.00,787.35 709.00,787.35
             711.56,786.77 716.55,786.08 717.94,783.69
             719.47,781.04 717.42,777.41 716.24,775.00
             716.24,775.00 706.75,755.00 706.75,755.00
             697.94,737.25 690.19,718.68 679.41,702.00
             673.39,692.69 664.14,682.65 653.00,680.00
             676.20,667.12 691.82,648.28 697.00,622.00
             697.98,617.04 698.94,612.07 699.00,607.00
             699.23,587.04 698.28,567.71 679.00,556.09
             672.31,552.06 659.83,549.10 652.00,549.00
             629.49,548.74 606.96,554.34 585.00,558.80
             585.00,558.80 550.00,566.40 550.00,566.40
             546.84,567.04 537.62,568.52 535.59,570.58
             532.55,573.69 533.24,583.74 532.83,588.00
             532.83,588.00 528.91,639.00 528.91,639.00
             528.91,639.00 519.91,759.00 519.91,759.00
             519.91,759.00 518.09,779.00 518.09,779.00
             518.09,779.00 516.83,799.00 516.83,799.00
             516.83,799.00 515.00,828.00 515.00,828.00 Z
           M 563.00,681.00
           C 563.00,681.00 564.83,656.00 564.83,656.00
             564.83,656.00 566.17,634.00 566.17,634.00
             566.17,634.00 569.00,594.00 569.00,594.00
             582.72,591.24 617.75,582.42 629.17,582.11
             633.13,582.00 636.17,582.49 640.00,583.48
             653.67,587.00 657.11,594.93 658.71,608.00
             659.37,613.36 658.70,615.00 658.16,620.00
             656.62,634.45 650.69,648.27 639.00,657.48
             619.72,672.67 586.80,674.69 563.00,681.00 Z
           M 423.00,785.00
           C 423.00,785.00 435.58,828.00 435.58,828.00
             436.47,831.03 439.24,841.39 441.51,842.98
             444.59,845.14 456.99,841.64 461.00,840.79
             464.43,840.06 477.32,838.00 478.94,835.49
             480.67,832.79 477.62,825.86 476.59,823.00
             476.59,823.00 465.41,790.00 465.41,790.00
             465.41,790.00 447.88,739.00 447.88,739.00
             447.88,739.00 430.51,688.00 430.51,688.00
             430.51,688.00 417.78,650.00 417.78,650.00
             417.78,650.00 404.41,611.00 404.41,611.00
             401.83,603.82 402.08,599.11 395.98,599.67
             395.98,599.67 369.00,605.35 369.00,605.35
             365.39,606.17 361.11,606.54 358.41,609.30
             355.86,611.92 351.28,623.99 349.57,628.00
             349.57,628.00 332.50,668.00 332.50,668.00
             332.50,668.00 287.13,774.00 287.13,774.00
             287.13,774.00 271.19,811.00 271.19,811.00
             271.19,811.00 246.78,868.00 246.78,868.00
             246.78,868.00 241.42,881.00 241.42,881.00
             240.68,882.69 239.70,885.41 241.42,886.66
             243.42,887.86 248.86,886.44 251.00,886.00
             251.00,886.00 271.00,881.65 271.00,881.65
             274.26,880.91 277.69,880.71 279.73,877.72
             279.73,877.72 287.20,860.00 287.20,860.00
             287.20,860.00 300.69,827.00 300.69,827.00
             302.28,823.42 305.45,813.88 307.70,811.43
             310.09,808.81 314.66,808.27 318.00,807.60
             318.00,807.60 338.00,803.35 338.00,803.35
             338.00,803.35 388.00,792.58 388.00,792.58
             388.00,792.58 423.00,785.00 423.00,785.00 Z
           M 179.00,749.00
           C 179.00,749.00 118.00,761.79 118.00,761.79
             118.00,761.79 80.00,770.00 80.00,770.00
             80.00,770.00 54.00,776.00 54.00,776.00
             54.00,776.00 55.91,748.00 55.91,748.00
             55.91,748.00 59.09,702.00 59.09,702.00
             59.66,693.69 62.14,679.53 60.00,672.00
             60.00,672.00 35.00,677.35 35.00,677.35
             31.95,678.04 26.82,678.52 25.02,681.30
             23.75,683.28 24.07,686.69 23.96,689.00
             23.96,689.00 22.91,703.00 22.91,703.00
             22.91,703.00 18.91,756.00 18.91,756.00
             18.91,756.00 9.91,875.00 9.91,875.00
             9.91,875.00 6.00,938.00 6.00,938.00
             6.00,938.00 30.00,933.60 30.00,933.60
             30.00,933.60 40.40,930.28 40.40,930.28
             40.40,930.28 42.58,923.00 42.58,923.00
             42.58,923.00 44.00,904.00 44.00,904.00
             44.00,904.00 44.91,894.00 44.91,894.00
             44.91,894.00 48.91,841.00 48.91,841.00
             48.91,841.00 50.28,819.00 50.28,819.00
             50.28,819.00 52.02,810.43 52.02,810.43
             52.02,810.43 61.00,806.88 61.00,806.88
             61.00,806.88 84.00,802.00 84.00,802.00
             84.00,802.00 142.00,789.42 142.00,789.42
             142.00,789.42 176.00,782.00 176.00,782.00
             176.00,782.00 173.09,818.00 173.09,818.00
             173.09,818.00 168.91,878.00 168.91,878.00
             168.91,878.00 167.00,903.00 167.00,903.00
             175.58,902.92 185.48,900.02 194.00,898.21
             196.93,897.59 202.06,897.16 203.83,894.57
             205.12,892.68 205.21,885.78 205.58,883.00
             205.58,883.00 208.17,847.00 208.17,847.00
             208.17,847.00 212.09,795.00 212.09,795.00
             212.09,795.00 215.91,748.00 215.91,748.00
             215.91,748.00 218.10,722.00 218.10,722.00
             218.10,722.00 218.10,713.00 218.10,713.00
             218.10,713.00 221.83,670.00 221.83,670.00
             221.83,670.00 222.58,659.00 222.58,659.00
             222.58,659.00 223.58,645.00 223.58,645.00
             223.80,643.17 224.28,640.18 222.98,638.71
             221.20,636.53 216.32,638.30 214.00,638.71
             214.00,638.71 194.00,643.00 194.00,643.00
             191.09,643.63 187.91,644.08 186.60,647.14
             185.91,648.74 185.96,652.96 185.72,655.00
             185.72,655.00 183.91,679.00 183.91,679.00
             183.91,679.00 182.09,699.00 182.09,699.00
             182.09,699.00 180.83,720.00 180.83,720.00
             180.83,720.00 179.00,749.00 179.00,749.00 Z
           M 377.00,645.00
           C 377.00,645.00 387.92,679.00 387.92,679.00
             387.92,679.00 404.42,730.00 404.42,730.00
             404.42,730.00 412.00,755.00 412.00,755.00
             412.00,755.00 385.00,760.58 385.00,760.58
             385.00,760.58 322.00,774.00 322.00,774.00
             322.00,774.00 344.55,720.00 344.55,720.00
             344.55,720.00 360.69,681.00 360.69,681.00
             360.69,681.00 371.14,656.00 371.14,656.00
             371.14,656.00 377.00,645.00 377.00,645.00 Z" />
</svg>
